<mxfile host="" modified="2020-05-24T15:21:41.060Z" agent="5.0 (X11; Linux x86_64) AppleWebKit/537.36 (KHTML, like Gecko) Code/1.45.0 Chrome/78.0.3904.130 Electron/7.2.4 Safari/537.36" version="13.1.3" etag="lrwgP8mNOWNbAz78NI_h" pages="2">
            <diagram id="diagramid" name="Diagram">
              <mxGraphModel><root><mxCell id="0"/><mxCell id="1" parent="0"/><mxCell id="2" value="ExampleAPIAppStackRestApiB6FF1BE3" style="outlineConnect=0;fontColor=#B3B3B3;gradientColor=#945DF2;gradientDirection=north;fillColor=#5A30B5;strokeColor=#ffffff;dashed=0;verticalLabelPosition=bottom;verticalAlign=top;align=center;html=1;fontSize=12;fontStyle=0;aspect=fixed;shape=mxgraph.aws4.resourceIcon;resIcon=mxgraph.aws4.api_gateway;" vertex="1" parent="1"><mxGeometry x="750" y="250" width="50" height="50" as="geometry"/></mxCell><mxCell id="3" value="ExampleAPIAppStackRestApiCloudWatchRole7B2D06C1" style="outlineConnect=0;fontColor=#B3B3B3;gradientColor=#F54749;gradientDirection=north;fillColor=#C7131F;strokeColor=#ffffff;dashed=0;verticalLabelPosition=bottom;verticalAlign=top;align=center;html=1;fontSize=12;fontStyle=0;aspect=fixed;shape=mxgraph.aws4.resourceIcon;resIcon=mxgraph.aws4.role;" vertex="1" parent="1"><mxGeometry x="250" width="50" height="50" as="geometry"/></mxCell><mxCell id="4" value="ExampleAPIAppStackRestApiAccountDD539675" style="outlineConnect=0;fontColor=#B3B3B3;gradientColor=#945DF2;gradientDirection=north;fillColor=#5A30B5;strokeColor=#ffffff;dashed=0;verticalLabelPosition=bottom;verticalAlign=top;align=center;html=1;fontSize=12;fontStyle=0;aspect=fixed;shape=mxgraph.aws4.resourceIcon;resIcon=mxgraph.aws4.api_gateway;" vertex="1" parent="1"><mxGeometry width="50" height="50" as="geometry"/></mxCell><mxCell id="5" value="ExampleAPIAppStackRestApiDeployment839B8B1C57dc09d70b94c74718ec8f87098ff141" style="outlineConnect=0;fontColor=#B3B3B3;gradientColor=#945DF2;gradientDirection=north;fillColor=#5A30B5;strokeColor=#ffffff;dashed=0;verticalLabelPosition=bottom;verticalAlign=top;align=center;html=1;fontSize=12;fontStyle=0;aspect=fixed;shape=mxgraph.aws4.resourceIcon;resIcon=mxgraph.aws4.api_gateway;" vertex="1" parent="1"><mxGeometry x="500" y="250" width="50" height="50" as="geometry"/></mxCell><mxCell id="6" value="ExampleAPIAppStackRestApiDeploymentStagebeta8191B84B" style="outlineConnect=0;fontColor=#B3B3B3;gradientColor=#945DF2;gradientDirection=north;fillColor=#5A30B5;strokeColor=#ffffff;dashed=0;verticalLabelPosition=bottom;verticalAlign=top;align=center;html=1;fontSize=12;fontStyle=0;aspect=fixed;shape=mxgraph.aws4.resourceIcon;resIcon=mxgraph.aws4.api_gateway;" vertex="1" parent="1"><mxGeometry x="250" y="225" width="50" height="50" as="geometry"/></mxCell><mxCell id="7" value="ExampleAPIAppStackRestApiGETApiPermissionExampleAPIAppStackExampleAPIAppStackRestApi3A7D2FEBGET7631C036" style="outlineConnect=0;fontColor=#B3B3B3;gradientColor=#F54749;gradientDirection=north;fillColor=#C7131F;strokeColor=#ffffff;dashed=0;verticalLabelPosition=bottom;verticalAlign=top;align=center;html=1;fontSize=12;fontStyle=0;aspect=fixed;shape=mxgraph.aws4.resourceIcon;resIcon=mxgraph.aws4.policy;" vertex="1" parent="1"><mxGeometry y="200" width="50" height="50" as="geometry"/></mxCell><mxCell id="8" value="ExampleAPIAppStackRestApiGETApiPermissionTestExampleAPIAppStackExampleAPIAppStackRestApi3A7D2FEBGET354E9A60" style="outlineConnect=0;fontColor=#B3B3B3;gradientColor=#F54749;gradientDirection=north;fillColor=#C7131F;strokeColor=#ffffff;dashed=0;verticalLabelPosition=bottom;verticalAlign=top;align=center;html=1;fontSize=12;fontStyle=0;aspect=fixed;shape=mxgraph.aws4.resourceIcon;resIcon=mxgraph.aws4.policy;" vertex="1" parent="1"><mxGeometry y="300" width="50" height="50" as="geometry"/></mxCell><mxCell id="9" value="ExampleAPIAppStackRestApiGETF76D1A72" style="outlineConnect=0;fontColor=#B3B3B3;gradientColor=#945DF2;gradientDirection=north;fillColor=#5A30B5;strokeColor=#ffffff;dashed=0;verticalLabelPosition=bottom;verticalAlign=top;align=center;html=1;fontSize=12;fontStyle=0;aspect=fixed;shape=mxgraph.aws4.resourceIcon;resIcon=mxgraph.aws4.api_gateway;" vertex="1" parent="1"><mxGeometry y="400" width="50" height="50" as="geometry"/></mxCell><mxCell id="10" value="HelloWorldExampleAPIAppStackServiceRole566FB7FE" style="outlineConnect=0;fontColor=#B3B3B3;gradientColor=#F54749;gradientDirection=north;fillColor=#C7131F;strokeColor=#ffffff;dashed=0;verticalLabelPosition=bottom;verticalAlign=top;align=center;html=1;fontSize=12;fontStyle=0;aspect=fixed;shape=mxgraph.aws4.resourceIcon;resIcon=mxgraph.aws4.role;" vertex="1" parent="1"><mxGeometry x="500" y="350" width="50" height="50" as="geometry"/></mxCell><mxCell id="11" value="HelloWorldExampleAPIAppStack87C03EA1" style="outlineConnect=0;fontColor=#B3B3B3;gradientColor=#F78E04;gradientDirection=north;fillColor=#D05C17;strokeColor=#ffffff;dashed=0;verticalLabelPosition=bottom;verticalAlign=top;align=center;html=1;fontSize=12;fontStyle=0;aspect=fixed;shape=mxgraph.aws4.resourceIcon;resIcon=mxgraph.aws4.lambda;" vertex="1" parent="1"><mxGeometry x="250" y="325" width="50" height="50" as="geometry"/></mxCell><mxCell id="ExampleAPIAppStackRestApiCloudWatchRole7B2D06C1|ExampleAPIAppStackRestApiAccountDD539675" value="CloudWatchRoleArn" style="edgeStyle=orthogonalEdgeStyle;rounded=1;orthogonalLoop=1;jettySize=auto;html=1;labelBackgroundColor=none;fontColor=#EA6B66;noEdgeStyle=1;orthogonal=1;" edge="1" parent="1" source="4" target="3"><mxGeometry relative="1" as="geometry"><Array as="points"><mxPoint x="62" y="25"/><mxPoint x="238" y="25"/></Array></mxGeometry></mxCell><mxCell id="ExampleAPIAppStackRestApiB6FF1BE3|ExampleAPIAppStackRestApiDeployment839B8B1C57dc09d70b94c74718ec8f87098ff141" value="RestApiId" style="edgeStyle=orthogonalEdgeStyle;rounded=1;orthogonalLoop=1;jettySize=auto;html=1;labelBackgroundColor=none;fontColor=#EA6B66;noEdgeStyle=1;orthogonal=1;" edge="1" parent="1" source="5" target="2"><mxGeometry relative="1" as="geometry"><Array as="points"><mxPoint x="562" y="275"/><mxPoint x="734" y="275"/></Array></mxGeometry></mxCell><mxCell id="ExampleAPIAppStackRestApiB6FF1BE3|ExampleAPIAppStackRestApiDeploymentStagebeta8191B84B" value="RestApiId" style="edgeStyle=orthogonalEdgeStyle;rounded=1;orthogonalLoop=1;jettySize=auto;html=1;labelBackgroundColor=none;fontColor=#EA6B66;noEdgeStyle=1;orthogonal=1;" edge="1" parent="1" source="6" target="2"><mxGeometry relative="1" as="geometry"><Array as="points"><mxPoint x="312" y="240"/><mxPoint x="400" y="200"/><mxPoint x="650" y="200"/><mxPoint x="736" y="267"/></Array></mxGeometry></mxCell><mxCell id="ExampleAPIAppStackRestApiDeployment839B8B1C57dc09d70b94c74718ec8f87098ff141|ExampleAPIAppStackRestApiDeploymentStagebeta8191B84B" value="DeploymentId" style="edgeStyle=orthogonalEdgeStyle;rounded=1;orthogonalLoop=1;jettySize=auto;html=1;labelBackgroundColor=none;fontColor=#EA6B66;noEdgeStyle=1;orthogonal=1;" edge="1" parent="1" source="6" target="5"><mxGeometry relative="1" as="geometry"><Array as="points"><mxPoint x="312" y="260"/><mxPoint x="488" y="275"/></Array></mxGeometry></mxCell><mxCell id="ExampleAPIAppStackRestApiB6FF1BE3|ExampleAPIAppStackRestApiGETApiPermissionExampleAPIAppStackExampleAPIAppStackRestApi3A7D2FEBGET7631C036" value="SourceArn" style="edgeStyle=orthogonalEdgeStyle;rounded=1;orthogonalLoop=1;jettySize=auto;html=1;labelBackgroundColor=none;fontColor=#EA6B66;noEdgeStyle=1;orthogonal=1;" edge="1" parent="1" source="7" target="2"><mxGeometry relative="1" as="geometry"><Array as="points"><mxPoint x="62" y="211.66666666666666"/><mxPoint x="150" y="150"/><mxPoint x="400" y="150"/><mxPoint x="400" y="150"/><mxPoint x="650" y="150"/><mxPoint x="738" y="259"/></Array></mxGeometry></mxCell><mxCell id="ExampleAPIAppStackRestApiDeploymentStagebeta8191B84B|ExampleAPIAppStackRestApiGETApiPermissionExampleAPIAppStackExampleAPIAppStackRestApi3A7D2FEBGET7631C036" value="SourceArn" style="edgeStyle=orthogonalEdgeStyle;rounded=1;orthogonalLoop=1;jettySize=auto;html=1;labelBackgroundColor=none;fontColor=#EA6B66;noEdgeStyle=1;orthogonal=1;" edge="1" parent="1" source="7" target="6"><mxGeometry relative="1" as="geometry"><Array as="points"><mxPoint x="64" y="225"/><mxPoint x="238" y="250"/></Array></mxGeometry></mxCell><mxCell id="HelloWorldExampleAPIAppStack87C03EA1|ExampleAPIAppStackRestApiGETApiPermissionExampleAPIAppStackExampleAPIAppStackRestApi3A7D2FEBGET7631C036" value="FunctionName" style="edgeStyle=orthogonalEdgeStyle;rounded=1;orthogonalLoop=1;jettySize=auto;html=1;labelBackgroundColor=none;fontColor=#EA6B66;noEdgeStyle=1;orthogonal=1;" edge="1" parent="1" source="7" target="11"><mxGeometry relative="1" as="geometry"><Array as="points"><mxPoint x="62" y="238.33333333333334"/><mxPoint x="238" y="336.6666666666667"/></Array></mxGeometry></mxCell><mxCell id="ExampleAPIAppStackRestApiB6FF1BE3|ExampleAPIAppStackRestApiGETApiPermissionTestExampleAPIAppStackExampleAPIAppStackRestApi3A7D2FEBGET354E9A60" value="SourceArn" style="edgeStyle=orthogonalEdgeStyle;rounded=1;orthogonalLoop=1;jettySize=auto;html=1;labelBackgroundColor=none;fontColor=#EA6B66;noEdgeStyle=1;orthogonal=1;" edge="1" parent="1" source="8" target="2"><mxGeometry relative="1" as="geometry"><Array as="points"><mxPoint x="62" y="335"/><mxPoint x="150" y="450"/><mxPoint x="400" y="450"/><mxPoint x="400" y="450"/><mxPoint x="650" y="450"/><mxPoint x="736" y="283"/></Array></mxGeometry></mxCell><mxCell id="HelloWorldExampleAPIAppStack87C03EA1|ExampleAPIAppStackRestApiGETApiPermissionTestExampleAPIAppStackExampleAPIAppStackRestApi3A7D2FEBGET354E9A60" value="FunctionName" style="edgeStyle=orthogonalEdgeStyle;rounded=1;orthogonalLoop=1;jettySize=auto;html=1;labelBackgroundColor=none;fontColor=#EA6B66;noEdgeStyle=1;orthogonal=1;" edge="1" parent="1" source="8" target="11"><mxGeometry relative="1" as="geometry"><Array as="points"><mxPoint x="62" y="315"/><mxPoint x="236" y="350"/></Array></mxGeometry></mxCell><mxCell id="ExampleAPIAppStackRestApiB6FF1BE3|ExampleAPIAppStackRestApiGETF76D1A72" value="RestApiId&#xA;ResourceId" style="edgeStyle=orthogonalEdgeStyle;rounded=1;orthogonalLoop=1;jettySize=auto;html=1;labelBackgroundColor=none;fontColor=#EA6B66;noEdgeStyle=1;orthogonal=1;" edge="1" parent="1" source="9" target="2"><mxGeometry relative="1" as="geometry"><Array as="points"><mxPoint x="62" y="435"/><mxPoint x="150" y="500"/><mxPoint x="400" y="500"/><mxPoint x="400" y="500"/><mxPoint x="650" y="500"/><mxPoint x="738" y="291"/></Array></mxGeometry></mxCell><mxCell id="HelloWorldExampleAPIAppStack87C03EA1|ExampleAPIAppStackRestApiGETF76D1A72" value="Uri" style="edgeStyle=orthogonalEdgeStyle;rounded=1;orthogonalLoop=1;jettySize=auto;html=1;labelBackgroundColor=none;fontColor=#EA6B66;noEdgeStyle=1;orthogonal=1;" edge="1" parent="1" source="9" target="11"><mxGeometry relative="1" as="geometry"><Array as="points"><mxPoint x="62" y="415"/><mxPoint x="238" y="363.3333333333333"/></Array></mxGeometry></mxCell><mxCell id="HelloWorldExampleAPIAppStackServiceRole566FB7FE|HelloWorldExampleAPIAppStack87C03EA1" value="Role" style="edgeStyle=orthogonalEdgeStyle;rounded=1;orthogonalLoop=1;jettySize=auto;html=1;labelBackgroundColor=none;fontColor=#EA6B66;noEdgeStyle=1;orthogonal=1;" edge="1" parent="1" source="11" target="10"><mxGeometry relative="1" as="geometry"><Array as="points"><mxPoint x="312" y="350"/><mxPoint x="488" y="375"/></Array></mxGeometry></mxCell></root></mxGraphModel>
            </diagram>
          </mxfile>